# xmcd
#
# Track frame offsets:
#	151
#	12461
#	26053
#	40847
#	56285
#	73398
#	82475
#	91487
#	106475
#	115881
#	131024
#	146889
#
# Disc length: 2130 seconds
#
# Revision: 131071
# Processed by: cddbd v1.5.2PL0 Copyright (c) Steve Scherf et al.
# Submitted via: EZCDAudioConverter 8.3.2.1
#
DISCID=b508500c
DTITLE=Steep Canyon Rangers - One Dime At A Time
DYEAR=2005
DGENRE=Bluegrass
TTITLE0=Waiting To Hear You To Call My Name
TTITLE1=One Dime At A Time
TTITLE2=The Ghost Of Norma Jean
TTITLE3=Evangaline
TTITLE4=Slow Burn
TTITLE5=I'll Be Long Gone
TTITLE6=I Can't Sit Down
TTITLE7=Hold On
TTITLE8=Big Cypoophus
TTITLE9=Green Eyed Lady
TTITLE10=Yesterday's Blues
TTITLE11=Restless Nights
EXTD=
EXTT0=
EXTT1=
EXTT2=
EXTT3=
EXTT4=
EXTT5=
EXTT6=
EXTT7=
EXTT8=
EXTT9=
EXTT10=
EXTT11=
PLAYORDER=
